<svg width="101" height="88" viewBox="0 0 101 88" fill="none" xmlns="http://www.w3.org/2000/svg">
<path d="M43.6772 49.1775V76.9999H96.9014V49.4065L69.6393 29.1183L43.6772 49.1775Z" fill="#6395EF"/>
<path opacity="0.2" d="M43.6772 49.1775V54.1742C43.9405 54.0687 44.1886 53.9289 44.4149 53.7583L70.2863 34.5128L96.1577 53.7583C96.3852 53.9257 96.6357 54.0596 96.9014 54.1561V49.4246L69.6393 29.1183L43.6772 49.1775Z" fill="black"/>
<path d="M76.127 52.4384H64.4459C64.2755 52.4376 64.1066 52.4704 63.9489 52.5348C63.7912 52.5993 63.6479 52.6942 63.5271 52.814C63.4063 52.9339 63.3105 53.0763 63.2451 53.2332C63.1797 53.3901 63.146 53.5583 63.146 53.7282V73.1425H77.427V53.7041C77.4206 53.3652 77.2807 53.0424 77.0374 52.8055C76.7941 52.5686 76.4671 52.4367 76.127 52.4384Z" fill="#10466D"/>
<path d="M78.7267 73.1183H61.8459C61.6755 73.1183 61.5067 73.1518 61.3493 73.217C61.192 73.2822 61.0491 73.3778 60.9288 73.4982C60.8086 73.6186 60.7134 73.7615 60.6488 73.9187C60.5841 74.0759 60.5512 74.2443 60.552 74.4142V76.9999H80.0206V74.4142C80.0214 74.2443 79.9885 74.0759 79.9238 73.9187C79.8592 73.7615 79.764 73.6186 79.6438 73.4982C79.5235 73.3778 79.3806 73.2822 79.2232 73.217C79.0659 73.1518 78.8971 73.1183 78.7267 73.1183Z" fill="#4D74B8"/>
<path d="M90.4078 53.7041H85.2384C84.8936 53.7041 84.563 53.8406 84.3192 54.0837C84.0754 54.3267 83.9385 54.6563 83.9385 55V64.0411H91.7078V55C91.7078 54.6563 91.5708 54.3267 91.327 54.0837C91.0832 53.8406 90.7526 53.7041 90.4078 53.7041Z" fill="#B5CFFF"/>
<path d="M90.4078 52.4383H85.2383C84.5504 52.4383 83.8907 52.7108 83.4042 53.1957C82.9178 53.6806 82.6445 54.3383 82.6445 55.0241V65.3792H93.0257V55C93.0226 54.6604 92.9523 54.3248 92.8191 54.0123C92.6858 53.6998 92.4921 53.4165 92.249 53.1786C92.0059 52.9407 91.7181 52.7529 91.4022 52.6259C91.0863 52.4989 90.7484 52.4352 90.4078 52.4383ZM91.7077 64.0833H83.9142V55.0422C83.9084 54.8664 83.9386 54.6914 84.0029 54.5276C84.0671 54.3639 84.1641 54.2149 84.288 54.0897C84.4119 53.9645 84.56 53.8658 84.7234 53.7995C84.8868 53.7332 85.062 53.7007 85.2383 53.7041H90.4319C90.7767 53.7041 91.1074 53.8406 91.3511 54.0837C91.5949 54.3267 91.7319 54.6563 91.7319 55L91.7077 64.0833Z" fill="white"/>
<path d="M55.3583 53.7041H50.1708C49.826 53.7041 49.4954 53.8406 49.2516 54.0837C49.0078 54.3267 48.8708 54.6563 48.8708 55V64.0411H56.6643V55C56.6643 54.8293 56.6305 54.6603 56.5648 54.5027C56.4991 54.3451 56.4028 54.2019 56.2814 54.0815C56.1601 53.9611 56.0161 53.8658 55.8577 53.801C55.6992 53.7362 55.5296 53.7033 55.3583 53.7041Z" fill="#B5CFFF"/>
<path d="M55.3585 52.4384H50.1709C49.483 52.4384 48.8233 52.7108 48.3368 53.1957C47.8504 53.6806 47.5771 54.3383 47.5771 55.0241V65.3792H57.9584V55C57.952 54.3174 57.6751 53.6649 57.188 53.185C56.701 52.7052 56.0433 52.4367 55.3585 52.4384ZM56.6584 64.0833H48.865V55.0422C48.8593 54.868 48.8889 54.6944 48.952 54.5319C49.0152 54.3694 49.1106 54.2212 49.2325 54.0963C49.3544 53.9714 49.5004 53.8722 49.6616 53.8049C49.8229 53.7375 49.9961 53.7032 50.1709 53.7041H55.3646C55.7093 53.7041 56.04 53.8406 56.2837 54.0837C56.5275 54.3267 56.6645 54.6563 56.6645 55L56.6584 64.0833Z" fill="white"/>
<path d="M95.6015 29.1183H74.833L96.9014 45.9408V30.4142C96.9014 30.0705 96.7644 29.7409 96.5207 29.4978C96.2769 29.2548 95.9463 29.1183 95.6015 29.1183Z" fill="#10466D"/>
<path d="M43.6773 30.4142V45.9408L65.7457 29.1183H44.9711C44.8007 29.1183 44.632 29.1518 44.4746 29.217C44.3172 29.2822 44.1743 29.3778 44.0541 29.4982C43.9339 29.6186 43.8387 29.7615 43.774 29.9187C43.7093 30.0759 43.6765 30.2443 43.6773 30.4142Z" fill="#10466D"/>
<path d="M99.6524 46.5074L70.2864 24.5496L40.9203 46.5074C40.3817 46.9111 40.0215 47.5076 39.9154 48.171C39.8094 48.8344 39.9659 49.5129 40.352 50.0635C40.5506 50.3483 40.8046 50.5905 41.0989 50.7756C41.3932 50.9607 41.7218 51.0851 42.0651 51.1413C42.4085 51.1975 42.7597 51.1844 43.0979 51.1028C43.4361 51.0212 43.7545 50.8728 44.0341 50.6663L70.2864 31.1254L96.5447 50.6301C96.8238 50.8365 97.1417 50.9848 97.4794 51.0663C97.8172 51.1478 98.1679 51.1609 98.5108 51.1047C98.8536 51.0484 99.1817 50.9241 99.4755 50.739C99.7692 50.554 100.023 50.312 100.221 50.0274C100.597 49.48 100.748 48.8093 100.642 48.1541C100.537 47.4989 100.182 46.9093 99.6524 46.5074Z" fill="#2E5BBF"/>
<path d="M21.869 62.5704C21.1737 60.1595 17.5762 46.8088 17.5762 46.8088C17.5762 46.8088 9.11162 42.8126 10.5264 48.4121C11.9412 54.0115 18.5738 64.3847 18.5738 64.3847C18.2559 65.8514 18.0537 67.3407 17.9692 68.8389C18.0357 73.6608 19.5593 79.9775 19.7347 85.9929H21.4276C21.2644 85.9447 22.4675 64.6197 21.869 62.5704Z" fill="#B5CFFF"/>
<path d="M21.4277 85.9928H19.7468C19.7468 86.6679 19.7468 87.3369 19.7468 87.9999H25.4907C25.4907 86.5533 22.5764 86.9994 21.4277 85.9928Z" fill="black"/>
<path d="M19.4384 84.9863C18.6826 77.645 17.9148 72.2263 17.685 68.6762C17.552 66.5907 17.5581 63.3962 16.7418 61.8773C14.8313 58.3151 11.258 52.3178 10.2967 48.4904C10.0185 47.3754 10.0971 46.5315 10.5325 45.971C10.7852 45.6997 11.0971 45.4901 11.4442 45.3584C11.7912 45.2267 12.1641 45.1765 12.5337 45.2115C14.6862 45.2115 17.5581 46.5617 17.679 46.6159L17.7818 46.6641V46.7666C17.818 46.9052 22.0141 59.8762 22.2801 62.3233C22.6005 65.1803 21.8025 73.9562 21.8025 84.9863H19.4384Z" fill="#10466D"/>
<path d="M10.1152 85.9928H8.56738C8.60366 87.0175 8.65807 87.9999 8.65807 87.9999H14.1903C14.1903 86.5895 11.3123 86.9994 10.1152 85.9928Z" fill="black"/>
<path d="M11.8142 63.1128C12.0621 62.1725 15.0368 50.2504 14.8736 47.0016C14.7103 43.7528 7.14055 45.6997 7.14055 45.6997C6.65686 51.7271 8.3921 63.0164 8.3921 63.0164C6.37873 69.2849 8.3921 75.5594 8.53116 84.7632C8.53116 85.1369 8.53116 85.5709 8.56744 85.9687H10.1152C10.0064 85.9506 11.1431 65.6986 11.8142 63.1128Z" fill="#B5CFFF"/>
<path d="M8.25895 84.9863C7.09809 73.492 6.37861 53.0953 6.62045 46.6641C6.62045 46.6641 9.37749 44.886 11.4574 44.886C14.3897 44.886 15.085 46.0312 15.085 46.9896C15.2543 50.2926 13.3014 55.3375 12.2494 63.1671C11.8927 65.8131 10.4356 83.8953 10.4718 85.0104L8.25895 84.9863Z" fill="#10466D"/>
<path d="M33.3565 36.9239C34.4976 37.0669 35.6468 37.1354 36.7968 37.1288C37.6977 37.0324 38.272 35.9836 37.8972 35.405C37.0507 34.097 36.0834 34.8384 33.3203 35.3447C30.5572 35.851 33.3565 36.9239 33.3565 36.9239Z" fill="#F8B89C"/>
<g style="mix-blend-mode:multiply">
<path d="M33.3565 36.9239C34.4976 37.0669 35.6468 37.1354 36.7968 37.1288C37.6977 37.0324 38.272 35.9836 37.8972 35.405C37.0507 34.097 36.0834 34.8384 33.3203 35.3447C30.5572 35.851 33.3565 36.9239 33.3565 36.9239Z" fill="#82A8EE"/>
</g>
<path d="M24.0396 25.755C24.7576 26.4815 25.2472 27.4011 25.4483 28.401C25.985 31.384 26.23 34.4119 26.1799 37.4421L33.8464 35.5616L35.098 38.3824C35.098 38.3824 25.4242 42.1254 24.0577 41.4865C22.6913 40.8476 20.6235 27.726 20.6235 27.726L24.0396 25.755Z" fill="#10466D"/>
<path d="M20.5449 23.4164C20.5449 23.4164 16.6874 22.874 15.4419 22.7354C12.6547 24.2844 10.4297 26.2071 9.27488 37.1408C8.96049 40.1545 7.08013 40.9079 6.17321 45.314C5.78384 46.8904 5.6855 48.5243 5.883 50.1359L19.4082 50.3167C19.4082 50.3167 18.2655 45.8203 18.7552 41.8422C19.3175 37.2373 22.655 33.9463 23.6889 31.8849C25.7143 27.8406 23.7554 25.6827 23.7554 25.6827L20.5449 23.4164Z" fill="#10466D"/>
<path d="M16.258 51.052C16.228 51.0521 16.1989 51.0411 16.1765 51.021C16.1542 51.001 16.1401 50.9733 16.1371 50.9435C16.1371 50.8531 15.605 42.0048 18.217 35.5857C18.2223 35.5713 18.2305 35.5581 18.2411 35.5469C18.2516 35.5357 18.2644 35.5268 18.2785 35.5206C18.2926 35.5144 18.3078 35.5111 18.3232 35.5109C18.3386 35.5107 18.3539 35.5136 18.3681 35.5194C18.3978 35.5314 18.4214 35.5546 18.4339 35.584C18.4463 35.6134 18.4466 35.6465 18.4346 35.6761C15.8469 42.047 16.3669 50.841 16.3729 50.9314C16.3746 50.9466 16.3731 50.9621 16.3684 50.9766C16.3637 50.9912 16.3559 51.0047 16.3456 51.016C16.3354 51.0274 16.3228 51.0365 16.3087 51.0427C16.2947 51.0489 16.2794 51.0521 16.2641 51.052H16.258Z" fill="#0E173D"/>
<path d="M9.97008 30.7758C9.94522 30.7754 9.92118 30.7669 9.90156 30.7517C9.88194 30.7365 9.86779 30.7154 9.86125 30.6914C9.85663 30.6768 9.85501 30.6614 9.85648 30.6461C9.85796 30.6308 9.86249 30.616 9.86982 30.6025C9.87716 30.589 9.88713 30.5771 9.89916 30.5676C9.91119 30.558 9.92503 30.5509 9.93986 30.5468C11.1007 30.1851 12.189 29.7873 13.1564 29.3775C13.184 29.3706 13.2131 29.3737 13.2387 29.3861C13.2642 29.3986 13.2846 29.4196 13.2961 29.4455C13.3077 29.4714 13.3097 29.5005 13.3018 29.5278C13.294 29.555 13.2767 29.5786 13.2531 29.5945C12.2737 30.0104 11.1793 30.4021 10.0064 30.7999L9.97008 30.7758Z" fill="white"/>
<path d="M16.3608 23.2416C16.3353 23.2499 16.3078 23.2499 16.2822 23.2416C15.9689 22.9616 15.5838 22.7738 15.1697 22.6991C15.154 22.6977 15.1388 22.693 15.125 22.6855C15.1112 22.6779 15.099 22.6676 15.0894 22.6551C15.0798 22.6427 15.0728 22.6284 15.0689 22.6132C15.0651 22.5979 15.0644 22.582 15.0669 22.5665C15.0728 22.5367 15.0898 22.5102 15.1145 22.4923C15.1391 22.4744 15.1697 22.4665 15.2 22.4701C15.6518 22.5539 16.0708 22.7628 16.4092 23.0728C16.4272 23.0886 16.4401 23.1093 16.4463 23.1324C16.4525 23.1555 16.4516 23.1799 16.4438 23.2026C16.4361 23.2252 16.4217 23.245 16.4026 23.2594C16.3835 23.2739 16.3606 23.2824 16.3366 23.2838L16.3608 23.2416Z" fill="white"/>
<path d="M24.2147 23.32C24.2147 23.32 23.5073 24.9534 23.725 25.7309C23.5436 25.8334 22.4734 26.2734 22.4734 26.2734L20.9619 23.6997C20.9619 23.6997 21.8144 22.3616 21.5121 21.5901C21.2098 20.8186 23.719 20.1134 23.719 20.1134L24.2147 23.32Z" fill="#B5CFFF"/>
<path d="M24.0999 24.2421C23.8119 24.1352 23.5527 23.9631 23.3429 23.7392C23.133 23.5154 22.9782 23.246 22.8907 22.9523C22.7595 22.4282 22.7721 21.8786 22.927 21.361C23.3804 19.9627 25.0673 23.4887 25.0673 23.4887L24.0999 24.2421Z" fill="#82A8EE"/>
<path d="M25.9864 16.0329C26.3734 16.1697 26.7264 16.3881 27.0212 16.673C27.3161 16.958 27.5459 17.303 27.6951 17.6844C27.8442 18.0659 27.9092 18.4749 27.8856 18.8836C27.862 19.2924 27.7504 19.6913 27.5584 20.0531C27.3467 20.457 27.5584 20.8668 27.4314 21.4033C27.0384 23.1211 26.065 24.3205 25.3515 24.212C24.4919 23.9332 23.7331 23.4093 23.1689 22.7052C22.8484 22.1627 22.9754 20.3605 22.9754 20.3605C22.9754 20.3605 21.3974 19.2093 21.6331 17.7326C21.8689 16.2559 24.7771 15.6712 25.9864 16.0329Z" fill="#B5CFFF"/>
<path d="M27.8002 18.0822C29.614 18.2751 31.3916 14.526 29.1364 13.1699C27.5523 12.2176 25.5934 14.1644 24.4748 14.4839C23.3563 14.8033 22.5945 14.8937 21.5364 15.2734C20.4783 15.6532 19.7891 17.1781 20.1519 18.8176C20.4641 19.7975 20.9205 20.7257 21.5062 21.5721C21.9596 21.5721 22.667 21.2225 23.2837 20.2159C23.2837 20.2159 23.2837 18.9682 24.1846 19.1551C24.2645 18.4886 24.5143 17.8536 24.9102 17.3107C25.418 16.8225 26.6091 16.9008 27.0928 17.1721C27.2775 17.2529 27.439 17.3785 27.5626 17.5375C27.6861 17.6965 27.7678 17.8837 27.8002 18.0822Z" fill="#0B3889"/>
<path d="M27.9332 18.0821C27.9027 18.0821 27.8735 18.0701 27.8519 18.0486C27.8304 18.0271 27.8183 17.998 27.8183 17.9676C27.8175 17.9521 27.8198 17.9365 27.8252 17.9219C27.8306 17.9073 27.839 17.894 27.8497 17.8827C27.8605 17.8714 27.8734 17.8625 27.8877 17.8563C27.9021 17.8502 27.9175 17.8471 27.9332 17.8471C28.6678 17.7861 29.3512 17.4476 29.8437 16.9008C30.149 16.4783 30.3607 15.996 30.4649 15.4858C30.5692 14.9756 30.5635 14.4492 30.4483 13.9413C30.4463 13.9105 30.4556 13.8801 30.4746 13.8556C30.4935 13.8312 30.5207 13.8145 30.5511 13.8087C30.5823 13.8053 30.6136 13.814 30.6384 13.8331C30.6632 13.8523 30.6796 13.8802 30.6841 13.9112C30.8008 14.4535 30.8007 15.0144 30.684 15.5567C30.5672 16.0991 30.3365 16.6106 30.007 17.0575C29.4728 17.6579 28.724 18.0257 27.9211 18.0821H27.9332Z" fill="#0B3889"/>
<path d="M22.552 18.7813C22.4591 18.8605 22.3828 18.9571 22.3273 19.0657C22.2719 19.1742 22.2385 19.2926 22.2289 19.4141C22.2096 19.6594 22.2889 19.9022 22.4492 20.0893C22.6096 20.2763 22.8379 20.3922 23.084 20.4114C23.33 20.4306 23.5737 20.3516 23.7613 20.1917C23.9489 20.0319 24.0651 19.8043 24.0844 19.559C24.1037 19.3137 24.0244 19.0708 23.864 18.8838C23.7037 18.6968 23.4754 18.5809 23.2293 18.5617C22.9833 18.5425 22.7397 18.6215 22.552 18.7813Z" fill="#B5CFFF"/>
<path d="M23.7553 25.3633L24.1604 27.2981C24.1604 27.2981 19.1179 34.6274 18.6644 34.9348C18.604 34.7781 19.2026 26.6592 19.2026 26.6592L20.6899 23.537L22.4735 26.2433L23.7553 25.3633Z" fill="white"/>
<path d="M22.4736 26.2372L22.6671 27.4608L23.8824 26.3638L23.701 25.08L22.4736 26.2372Z" fill="white"/>
<path d="M21.113 23.4043L22.4734 26.2432L21.1977 27.1232C21.1977 27.1232 19.801 25.0859 19.8675 24.429C19.9401 23.9468 21.113 23.4043 21.113 23.4043Z" fill="white"/>
<path d="M21.1132 23.4043L19.0515 23.1632L17.9028 24.7364L18.3743 25.2969L17.4312 26.0564C17.4312 26.0564 18.0841 29.5402 18.6404 34.9347C18.6404 34.9347 19.0938 31.3183 19.771 26.7013C20.0189 25.2125 20.6719 23.6755 21.1132 23.4043Z" fill="#10466D"/>
<path d="M18.4348 33.0302C18.4056 33.0305 18.3773 33.0203 18.3551 33.0015C18.3329 32.9826 18.3182 32.9564 18.3139 32.9277C17.812 28.7507 17.3223 26.1047 17.3163 26.0745C17.3138 26.0529 17.3169 26.031 17.3254 26.011C17.3338 25.9909 17.3474 25.9733 17.3646 25.96L18.2595 25.2789L17.8181 24.8208C17.8009 24.7995 17.7916 24.7729 17.7916 24.7455C17.7916 24.7181 17.8009 24.6915 17.8181 24.6702L18.9608 23.091C18.9811 23.0711 19.0079 23.059 19.0363 23.0569C19.0647 23.0547 19.0929 23.0626 19.116 23.0792C19.1391 23.0957 19.1557 23.1199 19.1627 23.1474C19.1697 23.175 19.1667 23.2041 19.1543 23.2296L18.066 24.7304L18.5255 25.2126C18.5382 25.2234 18.5485 25.2368 18.5555 25.2519C18.5625 25.2669 18.5661 25.2834 18.5661 25.3C18.5661 25.3167 18.5625 25.3331 18.5555 25.3482C18.5485 25.3633 18.5382 25.3767 18.5255 25.3874L17.5823 26.1047C17.6609 26.5567 18.1083 29.1184 18.5678 32.8976C18.5713 32.9286 18.5625 32.9598 18.5433 32.9846C18.5241 33.0093 18.4961 33.0257 18.465 33.0302H18.4348Z" fill="#0E173D"/>
<path d="M23.701 25.08L24.3056 26.189L24.2391 27.5271L23.8642 27.5934L23.9065 28.7024C23.9065 28.7024 20.6779 33.1808 18.6887 34.9348C20.3545 32.8711 21.7747 30.6219 22.921 28.2323C23.4039 27.2491 23.6699 26.1742 23.701 25.08Z" fill="#10466D"/>
<path d="M20.1457 33.5365C20.1238 33.5354 20.1026 33.5284 20.0843 33.5162C20.0661 33.504 20.0515 33.487 20.0422 33.4672C20.0329 33.4474 20.0291 33.4254 20.0314 33.4036C20.0337 33.3818 20.0419 33.3611 20.0551 33.3436C21.5847 31.5354 23.5195 28.9918 23.7613 28.6663L23.719 27.5995C23.7184 27.5713 23.7278 27.5438 23.7455 27.5217C23.7632 27.4997 23.788 27.4846 23.8158 27.4789L24.0999 27.4307L24.1362 26.1228C24.1353 26.1075 24.1377 26.0922 24.1432 26.0779C24.1486 26.0636 24.1571 26.0506 24.1679 26.0398C24.1787 26.029 24.1918 26.0206 24.2061 26.0152C24.2204 26.0097 24.2358 26.0074 24.2511 26.0082C24.2667 26.0082 24.2821 26.0114 24.2965 26.0175C24.3108 26.0236 24.3238 26.0326 24.3345 26.0439C24.3453 26.0552 24.3536 26.0685 24.359 26.0831C24.3644 26.0977 24.3668 26.1132 24.366 26.1288V27.5271C24.3651 27.5543 24.3551 27.5804 24.3376 27.6012C24.32 27.622 24.2959 27.6362 24.2692 27.6417L23.9911 27.6899L24.0274 28.7025C24.0362 28.7258 24.0362 28.7515 24.0274 28.7748C24.0274 28.7748 21.9173 31.5836 20.2909 33.4943C20.2744 33.5159 20.2514 33.5316 20.2253 33.5392C20.1992 33.5468 20.1713 33.5459 20.1457 33.5365Z" fill="#0E173D"/>
<path d="M41.1924 33.9945L3.65802 43.6383C3.20422 43.7558 2.72219 43.6888 2.31796 43.452C1.91374 43.2152 1.62043 42.828 1.50257 42.3756C1.38471 41.9232 1.45195 41.4427 1.6895 41.0397C1.92704 40.6367 2.31544 40.3443 2.76924 40.2268H2.86598L40.872 32.5962C40.9633 32.5752 41.0578 32.5724 41.1502 32.5878C41.2427 32.6033 41.3311 32.6367 41.4105 32.6862C41.49 32.7358 41.5589 32.8004 41.6133 32.8765C41.6676 32.9526 41.7065 33.0386 41.7275 33.1296C41.7485 33.2206 41.7514 33.3149 41.7359 33.407C41.7204 33.4991 41.6868 33.5873 41.6371 33.6665C41.5875 33.7457 41.5226 33.8144 41.4463 33.8686C41.37 33.9228 41.2837 33.9615 41.1924 33.9825V33.9945Z" fill="#4170C4"/>
<path opacity="0.5" d="M85.4434 46.5448C95.8538 36.1667 95.8538 19.3404 85.4434 8.96232C75.0331 -1.41578 58.1545 -1.41578 47.7442 8.96232C37.3338 19.3404 37.3338 36.1667 47.7442 46.5448C58.1545 56.9229 75.0331 56.9229 85.4434 46.5448Z" fill="#D4E2EC"/>
<path d="M66.5377 55.5183C59.3995 55.5209 52.5315 52.7968 47.3463 47.906C42.1611 43.0153 39.0527 36.3297 38.6606 29.2243C38.2684 22.1189 40.6222 15.1338 45.2379 9.70547C49.8536 4.27713 56.3803 0.818268 63.4758 0.040184C70.5713 -0.7379 77.6961 1.22395 83.3851 5.52228C89.0741 9.82061 92.8946 16.1287 94.0612 23.1491C95.2277 30.1696 93.6515 37.3689 89.6566 43.2663C85.6618 49.1637 79.552 53.311 72.5839 54.8553C70.5982 55.2918 68.5711 55.5141 66.5377 55.5183ZM66.5922 2.35063C59.8333 2.35063 53.3512 5.02727 48.5719 9.79172C43.7927 14.5562 41.1077 21.0182 41.1077 27.7561C41.1077 34.4941 43.7927 40.956 48.5719 45.7205C53.3512 50.4849 59.8333 53.1616 66.5922 53.1616C70.4026 53.1601 74.1642 52.3067 77.6001 50.6644C81.0361 49.022 84.0588 46.6324 86.4459 43.6716C88.833 40.7107 90.5237 37.2538 91.3935 33.5555C92.2633 29.8571 92.2901 26.0114 91.472 22.3013C90.2182 16.6514 87.0702 11.5962 82.5473 7.96935C78.0244 4.34252 72.3967 2.36067 66.5922 2.35063Z" fill="#4170C4"/>
<path d="M8.34985 40.5402C8.34985 40.5402 10.726 42.9512 12.5821 42.3484C14.2327 41.818 14.8071 41.4926 15.0732 41.2635C15.2243 41.1309 15.321 40.7934 15.2001 40.7994C14.5471 40.7994 12.0138 40.5945 11.8203 39.8893C11.7236 39.5397 12.2496 38.7561 12.5156 38.4427C12.5761 38.3704 12.5821 38.292 12.4794 38.2558C12.2931 38.2393 12.1055 38.2661 11.9313 38.3341C11.7572 38.4021 11.6012 38.5094 11.4757 38.6476C10.6474 39.395 10.3572 39.7627 10.1274 39.4734C9.58327 38.7923 8.34985 40.5402 8.34985 40.5402Z" fill="#B5CFFF"/>
<path d="M14.6619 22.6751C16.766 22.9644 17.3041 25.5079 16.1311 27.2619C14.2326 30.0948 6.60243 30.9507 4.74627 32.789L10.3027 39.5638L8.30139 42.0833C8.30139 42.0833 -0.532012 34.7419 0.0242327 32.3611C0.453508 30.5167 11.2035 22.2049 14.6619 22.6751Z" fill="#10466D"/>
<path d="M36.7061 32.8312C35.5633 32.5479 34.8922 33.223 35.7931 35.3446C36.3977 36.7912 35.4968 35.4953 34.2634 36.4838L34.735 37.5446C35.226 37.3335 35.7684 37.2706 36.2949 37.3638C37.0085 37.3094 37.6919 37.0544 38.266 36.6285C38.8766 36.0257 37.8548 33.1507 36.7061 32.8312Z" fill="#B5CFFF"/>
</svg>
