<svg width="101" height="88" viewBox="0 0 101 88" fill="none" xmlns="http://www.w3.org/2000/svg">
<path d="M25.0181 87.0995H7.09223C5.08849 85.2883 3.68049 82.9125 3.05376 80.2852C2.42704 77.6579 2.61099 74.9024 3.58138 72.3817C4.55178 69.8611 6.26307 67.6935 8.48979 66.1647C10.7165 64.6359 13.3541 63.8176 16.0551 63.8176C18.7562 63.8176 21.3938 64.6359 23.6205 66.1647C25.8472 67.6935 27.5585 69.8611 28.5289 72.3817C29.4993 74.9024 29.6833 77.6579 29.0565 80.2852C28.4298 82.9125 27.0218 85.2883 25.0181 87.0995Z" fill="#8FB7FF"/>
<path d="M10.3052 71.9104C15.9966 71.9104 20.6104 67.2966 20.6104 61.6052C20.6104 55.9138 15.9966 51.3 10.3052 51.3C4.61378 51.3 0 55.9138 0 61.6052C0 67.2966 4.61378 71.9104 10.3052 71.9104Z" fill="#8FB7FF"/>
<path d="M14.1551 57.4089C17.912 57.4089 20.9576 54.3633 20.9576 50.6064C20.9576 46.8494 17.912 43.8038 14.1551 43.8038C10.3981 43.8038 7.35254 46.8494 7.35254 50.6064C7.35254 54.3633 10.3981 57.4089 14.1551 57.4089Z" fill="#8FB7FF"/>
<path d="M90.3231 74.7216C93.5095 71.5352 93.5095 66.3691 90.3231 63.1827C87.1367 59.9963 81.9705 59.9963 78.7841 63.1827C75.5977 66.3691 75.5977 71.5352 78.7841 74.7216C81.9705 77.908 87.1367 77.908 90.3231 74.7216Z" fill="#4170C4"/>
<path d="M88.3127 62.9707H86.3174V78.3771H88.3127V62.9707Z" fill="#8FB7FF"/>
<path d="M67.2508 52.1442H14.4131V84.9189H67.2508V52.1442Z" fill="#A1C6E9"/>
<path d="M27.1797 17.6406L41.4581 4.19189L55.6366 17.6406H27.1797Z" fill="#5D84B9"/>
<path d="M30.7534 17.6406L41.4452 7.56995L52.1746 17.6406H30.7534Z" fill="#C7E1F5"/>
<path d="M87.3154 56.1174C92.6173 56.1174 96.9154 51.8193 96.9154 46.5174C96.9154 41.2154 92.6173 36.9174 87.3154 36.9174C82.0134 36.9174 77.7153 41.2154 77.7153 46.5174C77.7153 51.8193 82.0134 56.1174 87.3154 56.1174Z" fill="#BDD5FF"/>
<path d="M90.3761 64.6045C94.553 62.9135 96.5683 58.1566 94.8773 53.9797C93.1863 49.8028 88.4294 47.7875 84.2525 49.4785C80.0755 51.1695 78.0603 55.9264 79.7513 60.1033C81.4422 64.2802 86.1991 66.2955 90.3761 64.6045Z" fill="#BDD5FF"/>
<path d="M100.128 53.3513C100.498 48.8602 97.1576 44.9196 92.6665 44.5496C88.1755 44.1795 84.2348 47.5203 83.8648 52.0113C83.4948 56.5024 86.8355 60.443 91.3266 60.813C95.8176 61.1831 99.7583 57.8423 100.128 53.3513Z" fill="#BDD5FF"/>
<path d="M91.3934 39.4932C93.0844 35.3163 91.0691 30.5594 86.8922 28.8684C82.7153 27.1774 77.9584 29.1926 76.2674 33.3696C74.5764 37.5465 76.5916 42.3034 80.7686 43.9944C84.9455 45.6854 89.7024 43.6701 91.3934 39.4932Z" fill="#BDD5FF"/>
<path d="M38.8649 84.5192H14.4131V87.2051H38.8649V84.5192Z" fill="#4170C4"/>
<path d="M83.833 49.7217H38.8418V87.2052H83.833V49.7217Z" fill="#C7E1F5"/>
<path d="M67.2508 24.2737H14.4131V48.5966H67.2508V24.2737Z" fill="#A1C6E9"/>
<path d="M14.4128 13.3792H49.8373L52.4205 24.6313H10.9551L14.4128 13.3792Z" fill="#4A6D9D"/>
<path d="M14.4128 40.8921H81.9691L84.5523 52.1442H10.9551L14.4128 40.8921Z" fill="#4A6D9D"/>
<path d="M35.1987 24.6314H87.3154L61.349 0L35.1987 24.6314Z" fill="#5D84B9"/>
<path d="M38.8647 24.5444L61.3357 3.37805L83.8313 24.4937V49.1251H38.8647V24.6313V24.5444Z" fill="#C7E1F5"/>
<path d="M67.0218 23.4281H55.0688V41.2569H67.0218V23.4281Z" fill="white"/>
<path d="M66.0532 25.3813H56.0376V40.2867H66.0532V25.3813Z" fill="#9FB5CA"/>
<path d="M57.4552 25.4103H66.0532V24.3967H56.0376V40.2867H57.4552V25.4103Z" fill="#7F97AD"/>
<path d="M66.3793 34.7107H55.8149V35.1002H66.3793V34.7107Z" fill="white"/>
<path d="M66.3793 29.4487H55.8149V29.8382H66.3793V29.4487Z" fill="white"/>
<path d="M67.0218 58.9481H55.0688V76.7769H67.0218V58.9481Z" fill="white"/>
<path d="M66.0532 60.9028H56.0376V75.8082H66.0532V60.9028Z" fill="#9FB5CA"/>
<path d="M57.4552 60.9305H66.0532V59.9183H56.0376V75.8083H57.4552V60.9305Z" fill="#7F97AD"/>
<path d="M32.4779 55.8568H20.1514V80.9081H32.4779V55.8568Z" fill="#9FB5CA"/>
<path d="M30.3827 58.55H22.2495V78.212H30.3827V58.55Z" fill="#4170C4"/>
<path d="M38.8417 80.9065H14.4131V84.5192H38.8417V80.9065Z" fill="#A3A3A3"/>
<path d="M27.0266 8.62109H22.8535V18.515H27.0266V8.62109Z" fill="#C7E1F5"/>
<path d="M27.4522 7.78857H22.4277V9.85917H27.4522V7.78857Z" fill="#647081"/>
<path d="M100.249 82.3659C100.539 79.4189 98.3857 76.7944 95.4388 76.5039C92.4918 76.2134 89.8673 78.3669 89.5768 81.3138C89.2863 84.2608 91.4398 86.8853 94.3867 87.1758C97.3337 87.4663 99.9582 85.3128 100.249 82.3659Z" fill="#8DAFEB"/>
<path d="M89.6449 79.5586C91.8937 79.5586 93.7166 77.7357 93.7166 75.487C93.7166 73.2382 91.8937 71.4153 89.6449 71.4153C87.3962 71.4153 85.5732 73.2382 85.5732 75.487C85.5732 77.7357 87.3962 79.5586 89.6449 79.5586Z" fill="#8DAFEB"/>
<path d="M87.1862 84.2829C89.9159 83.1349 91.1981 79.9914 90.0501 77.2618C88.9021 74.5321 85.7586 73.2499 83.0289 74.3979C80.2993 75.5459 79.0171 78.6894 80.1651 81.4191C81.3131 84.1487 84.4566 85.4309 87.1862 84.2829Z" fill="#8DAFEB"/>
<path d="M83.9969 84.0252C84.4844 81.83 83.1 79.6552 80.9047 79.1677C78.7095 78.6802 76.5347 80.0646 76.0472 82.2599C75.5597 84.4551 76.9442 86.6299 79.1394 87.1174C81.3347 87.6049 83.5094 86.2205 83.9969 84.0252Z" fill="#8DAFEB"/>
<path d="M94.7405 80.5707H80.0176V87.2038H94.7405V80.5707Z" fill="#8DAFEB"/>
<path d="M84.5523 52.1442H10.9551V53.3518H84.5523V52.1442Z" fill="#3E5D86"/>
<path d="M38.8646 24.6313H10.9551V25.839H38.8646V24.6313Z" fill="#3E5D86"/>
</svg>
